<svg width="64" height="64" viewBox="0 0 64 64" fill="none" xmlns="http://www.w3.org/2000/svg">
<path d="M56.475 25.7C55.525 24.725 54.55 23.7 54.175 22.825C53.8 21.95 53.825 20.65 53.8 19.325C53.775 16.9 53.725 14.125 51.8 12.2C49.875 10.275 47.1 10.225 44.675 10.2C43.35 10.175 42 10.15 41.175 9.825C40.35 9.5 39.275 8.475 38.3 7.525C36.575 5.875 34.6 4 32 4C29.4 4 27.425 5.875 25.7 7.525C24.725 8.475 23.7 9.45 22.825 9.825C21.95 10.2 20.65 10.175 19.325 10.2C16.9 10.225 14.125 10.275 12.2 12.2C10.275 14.125 10.225 16.9 10.2 19.325C10.175 20.65 10.15 22 9.825 22.825C9.5 23.65 8.475 24.725 7.525 25.7C5.875 27.425 4 29.4 4 32C4 34.6 5.875 36.575 7.525 38.3C8.475 39.275 9.45 40.3 9.825 41.175C10.2 42.05 10.175 43.35 10.2 44.675C10.225 47.1 10.275 49.875 12.2 51.8C14.125 53.725 16.9 53.775 19.325 53.8C20.65 53.825 22 53.85 22.825 54.175C23.65 54.5 24.725 55.525 25.7 56.475C27.425 58.125 29.4 60 32 60C34.6 60 36.575 58.125 38.3 56.475C39.275 55.525 40.3 54.55 41.175 54.175C42.05 53.8 43.35 53.825 44.675 53.8C47.1 53.775 49.875 53.725 51.8 51.8C53.725 49.875 53.775 47.1 53.8 44.675C53.825 43.35 53.85 42 54.175 41.175C54.5 40.35 55.525 39.275 56.475 38.3C58.125 36.575 60 34.6 60 32C60 29.4 58.125 27.425 56.475 25.7ZM30 20C30 19.4696 30.2107 18.9609 30.5858 18.5858C30.9609 18.2107 31.4696 18 32 18C32.5304 18 33.0391 18.2107 33.4142 18.5858C33.7893 18.9609 34 19.4696 34 20V34C34 34.5304 33.7893 35.0391 33.4142 35.4142C33.0391 35.7893 32.5304 36 32 36C31.4696 36 30.9609 35.7893 30.5858 35.4142C30.2107 35.0391 30 34.5304 30 34V20ZM32 46C31.4067 46 30.8266 45.8241 30.3333 45.4944C29.8399 45.1648 29.4554 44.6962 29.2284 44.1481C29.0013 43.5999 28.9419 42.9967 29.0576 42.4147C29.1734 41.8328 29.4591 41.2982 29.8787 40.8787C30.2982 40.4591 30.8328 40.1734 31.4147 40.0576C31.9967 39.9419 32.5999 40.0013 33.1481 40.2284C33.6962 40.4554 34.1648 40.8399 34.4944 41.3333C34.8241 41.8266 35 42.4067 35 43C35 43.7957 34.6839 44.5587 34.1213 45.1213C33.5587 45.6839 32.7957 46 32 46Z" fill="#FFAD0D"/>
</svg>
